<mxfile host="app.diagrams.net" agent="Mozilla/5.0 (Windows NT 10.0; Win64; x64) AppleWebKit/537.36 (KHTML, like Gecko) Chrome/136.0.0.0 Safari/537.36 Edg/136.0.0.0" version="26.2.14">
  <diagram name="Page-1" id="rv70FW1noNGGTZR8Txte">
    <mxGraphModel dx="2245" dy="756" grid="1" gridSize="10" guides="1" tooltips="1" connect="1" arrows="1" fold="1" page="1" pageScale="1" pageWidth="827" pageHeight="1169" math="0" shadow="0">
      <root>
        <mxCell id="0" />
        <mxCell id="1" parent="0" />
        <mxCell id="NYa0R-SMuXHiYhOAjpid-2" value="«System»&lt;br&gt;&lt;b&gt;Name&lt;/b&gt;" style="html=1;whiteSpace=wrap;" vertex="1" parent="1">
          <mxGeometry x="780" y="20" width="110" height="50" as="geometry" />
        </mxCell>
        <mxCell id="NYa0R-SMuXHiYhOAjpid-31" style="edgeStyle=orthogonalEdgeStyle;rounded=0;orthogonalLoop=1;jettySize=auto;html=1;exitX=0.5;exitY=0;exitDx=0;exitDy=0;entryX=0.5;entryY=1;entryDx=0;entryDy=0;endArrow=diamondThin;endFill=1;" edge="1" parent="1" source="NYa0R-SMuXHiYhOAjpid-3" target="NYa0R-SMuXHiYhOAjpid-2">
          <mxGeometry relative="1" as="geometry" />
        </mxCell>
        <mxCell id="NYa0R-SMuXHiYhOAjpid-3" value="«SubSystem»&lt;br&gt;&lt;b&gt;User Management&lt;/b&gt;" style="html=1;whiteSpace=wrap;" vertex="1" parent="1">
          <mxGeometry x="-517" y="250" width="110" height="50" as="geometry" />
        </mxCell>
        <mxCell id="NYa0R-SMuXHiYhOAjpid-53" style="edgeStyle=orthogonalEdgeStyle;rounded=0;orthogonalLoop=1;jettySize=auto;html=1;exitX=0.5;exitY=0;exitDx=0;exitDy=0;entryX=0.5;entryY=1;entryDx=0;entryDy=0;endArrow=diamondThin;endFill=1;" edge="1" parent="1" source="NYa0R-SMuXHiYhOAjpid-10" target="NYa0R-SMuXHiYhOAjpid-3">
          <mxGeometry relative="1" as="geometry" />
        </mxCell>
        <mxCell id="NYa0R-SMuXHiYhOAjpid-10" value="«interface»&lt;br&gt;&lt;b&gt;Register Account&lt;/b&gt;" style="html=1;whiteSpace=wrap;" vertex="1" parent="1">
          <mxGeometry x="-610" y="390" width="110" height="50" as="geometry" />
        </mxCell>
        <mxCell id="NYa0R-SMuXHiYhOAjpid-51" style="edgeStyle=orthogonalEdgeStyle;rounded=0;orthogonalLoop=1;jettySize=auto;html=1;exitX=0.5;exitY=0;exitDx=0;exitDy=0;entryX=0.5;entryY=1;entryDx=0;entryDy=0;endArrow=diamondThin;endFill=1;" edge="1" parent="1" source="NYa0R-SMuXHiYhOAjpid-11" target="NYa0R-SMuXHiYhOAjpid-3">
          <mxGeometry relative="1" as="geometry" />
        </mxCell>
        <mxCell id="NYa0R-SMuXHiYhOAjpid-11" value="«interface»&lt;br&gt;&lt;b&gt;Register Vehicle&lt;/b&gt;" style="html=1;whiteSpace=wrap;" vertex="1" parent="1">
          <mxGeometry x="-407" y="390" width="110" height="50" as="geometry" />
        </mxCell>
        <mxCell id="NYa0R-SMuXHiYhOAjpid-60" style="edgeStyle=orthogonalEdgeStyle;rounded=0;orthogonalLoop=1;jettySize=auto;html=1;exitX=0.25;exitY=0;exitDx=0;exitDy=0;entryX=0.5;entryY=1;entryDx=0;entryDy=0;endArrow=diamondThin;endFill=1;" edge="1" parent="1" source="NYa0R-SMuXHiYhOAjpid-13" target="NYa0R-SMuXHiYhOAjpid-3">
          <mxGeometry relative="1" as="geometry" />
        </mxCell>
        <mxCell id="NYa0R-SMuXHiYhOAjpid-61" style="edgeStyle=orthogonalEdgeStyle;rounded=0;orthogonalLoop=1;jettySize=auto;html=1;exitX=0.75;exitY=0;exitDx=0;exitDy=0;entryX=0.5;entryY=1;entryDx=0;entryDy=0;endArrow=diamondThin;endFill=1;" edge="1" parent="1" source="NYa0R-SMuXHiYhOAjpid-13" target="NYa0R-SMuXHiYhOAjpid-24">
          <mxGeometry relative="1" as="geometry" />
        </mxCell>
        <mxCell id="NYa0R-SMuXHiYhOAjpid-13" value="«database»&lt;br&gt;&lt;b&gt;MyWazeData&lt;/b&gt;" style="html=1;whiteSpace=wrap;" vertex="1" parent="1">
          <mxGeometry x="-140" y="390" width="110" height="50" as="geometry" />
        </mxCell>
        <mxCell id="NYa0R-SMuXHiYhOAjpid-47" style="edgeStyle=orthogonalEdgeStyle;rounded=0;orthogonalLoop=1;jettySize=auto;html=1;exitX=0.5;exitY=0;exitDx=0;exitDy=0;entryX=0.5;entryY=1;entryDx=0;entryDy=0;endArrow=diamondThin;endFill=1;" edge="1" parent="1" source="NYa0R-SMuXHiYhOAjpid-14" target="NYa0R-SMuXHiYhOAjpid-16">
          <mxGeometry relative="1" as="geometry" />
        </mxCell>
        <mxCell id="NYa0R-SMuXHiYhOAjpid-14" value="«interface»&lt;br&gt;&lt;b&gt;SpeedAlert&lt;/b&gt;" style="html=1;whiteSpace=wrap;" vertex="1" parent="1">
          <mxGeometry x="341" y="390" width="110" height="50" as="geometry" />
        </mxCell>
        <mxCell id="NYa0R-SMuXHiYhOAjpid-49" style="edgeStyle=orthogonalEdgeStyle;rounded=0;orthogonalLoop=1;jettySize=auto;html=1;exitX=0.5;exitY=0;exitDx=0;exitDy=0;entryX=0.5;entryY=1;entryDx=0;entryDy=0;endArrow=diamondThin;endFill=1;" edge="1" parent="1" source="NYa0R-SMuXHiYhOAjpid-15" target="NYa0R-SMuXHiYhOAjpid-16">
          <mxGeometry relative="1" as="geometry" />
        </mxCell>
        <mxCell id="NYa0R-SMuXHiYhOAjpid-15" value="«interface»&lt;br&gt;&lt;b&gt;userReport&lt;/b&gt;" style="html=1;whiteSpace=wrap;" vertex="1" parent="1">
          <mxGeometry x="601" y="390" width="110" height="50" as="geometry" />
        </mxCell>
        <mxCell id="NYa0R-SMuXHiYhOAjpid-32" style="edgeStyle=orthogonalEdgeStyle;rounded=0;orthogonalLoop=1;jettySize=auto;html=1;exitX=0.5;exitY=0;exitDx=0;exitDy=0;entryX=0.5;entryY=1;entryDx=0;entryDy=0;endArrow=diamondThin;endFill=1;" edge="1" parent="1" source="NYa0R-SMuXHiYhOAjpid-16" target="NYa0R-SMuXHiYhOAjpid-2">
          <mxGeometry relative="1" as="geometry" />
        </mxCell>
        <mxCell id="NYa0R-SMuXHiYhOAjpid-16" value="«subSystem»&lt;br&gt;&lt;b&gt;Traffic Monotoring &amp;amp; Alerts&lt;/b&gt;" style="html=1;whiteSpace=wrap;" vertex="1" parent="1">
          <mxGeometry x="481" y="250" width="110" height="50" as="geometry" />
        </mxCell>
        <mxCell id="NYa0R-SMuXHiYhOAjpid-55" style="edgeStyle=orthogonalEdgeStyle;rounded=0;orthogonalLoop=1;jettySize=auto;html=1;exitX=0.25;exitY=0;exitDx=0;exitDy=0;entryX=0.5;entryY=1;entryDx=0;entryDy=0;endArrow=diamondThin;endFill=1;" edge="1" parent="1" source="NYa0R-SMuXHiYhOAjpid-17" target="NYa0R-SMuXHiYhOAjpid-16">
          <mxGeometry relative="1" as="geometry" />
        </mxCell>
        <mxCell id="NYa0R-SMuXHiYhOAjpid-88" style="edgeStyle=orthogonalEdgeStyle;rounded=0;orthogonalLoop=1;jettySize=auto;html=1;exitX=0.75;exitY=0;exitDx=0;exitDy=0;entryX=0.5;entryY=1;entryDx=0;entryDy=0;endArrow=diamondThin;endFill=1;" edge="1" parent="1" source="NYa0R-SMuXHiYhOAjpid-17" target="NYa0R-SMuXHiYhOAjpid-18">
          <mxGeometry relative="1" as="geometry" />
        </mxCell>
        <mxCell id="NYa0R-SMuXHiYhOAjpid-17" value="«database»&lt;br&gt;&lt;span&gt;TrafficData&lt;/span&gt;" style="html=1;whiteSpace=wrap;fontStyle=1" vertex="1" parent="1">
          <mxGeometry x="861" y="390" width="110" height="50" as="geometry" />
        </mxCell>
        <mxCell id="NYa0R-SMuXHiYhOAjpid-33" style="edgeStyle=orthogonalEdgeStyle;rounded=0;orthogonalLoop=1;jettySize=auto;html=1;exitX=0.5;exitY=0;exitDx=0;exitDy=0;entryX=0.5;entryY=1;entryDx=0;entryDy=0;endArrow=diamondThin;endFill=1;" edge="1" parent="1" source="NYa0R-SMuXHiYhOAjpid-18" target="NYa0R-SMuXHiYhOAjpid-2">
          <mxGeometry relative="1" as="geometry" />
        </mxCell>
        <mxCell id="NYa0R-SMuXHiYhOAjpid-18" value="«subsystem»&lt;br&gt;&lt;b&gt;Navigation&lt;/b&gt;" style="html=1;whiteSpace=wrap;" vertex="1" parent="1">
          <mxGeometry x="1171" y="250" width="110" height="50" as="geometry" />
        </mxCell>
        <mxCell id="NYa0R-SMuXHiYhOAjpid-40" style="edgeStyle=orthogonalEdgeStyle;rounded=0;orthogonalLoop=1;jettySize=auto;html=1;exitX=0.5;exitY=0;exitDx=0;exitDy=0;entryX=0.5;entryY=1;entryDx=0;entryDy=0;endArrow=diamondThin;endFill=1;" edge="1" parent="1" source="NYa0R-SMuXHiYhOAjpid-19" target="NYa0R-SMuXHiYhOAjpid-18">
          <mxGeometry relative="1" as="geometry" />
        </mxCell>
        <mxCell id="NYa0R-SMuXHiYhOAjpid-19" value="«interface»&lt;br&gt;&lt;b&gt;Define Route&lt;/b&gt;" style="html=1;whiteSpace=wrap;" vertex="1" parent="1">
          <mxGeometry x="1171" y="390" width="110" height="50" as="geometry" />
        </mxCell>
        <mxCell id="NYa0R-SMuXHiYhOAjpid-41" style="edgeStyle=orthogonalEdgeStyle;rounded=0;orthogonalLoop=1;jettySize=auto;html=1;exitX=0.5;exitY=0;exitDx=0;exitDy=0;entryX=0.5;entryY=1;entryDx=0;entryDy=0;endArrow=diamondThin;endFill=1;" edge="1" parent="1" source="NYa0R-SMuXHiYhOAjpid-21" target="NYa0R-SMuXHiYhOAjpid-19">
          <mxGeometry relative="1" as="geometry" />
        </mxCell>
        <mxCell id="NYa0R-SMuXHiYhOAjpid-21" value="«interface»&lt;br&gt;&lt;b&gt;Multi-Stop Route&lt;/b&gt;" style="html=1;whiteSpace=wrap;" vertex="1" parent="1">
          <mxGeometry x="991" y="560" width="110" height="50" as="geometry" />
        </mxCell>
        <mxCell id="NYa0R-SMuXHiYhOAjpid-44" style="edgeStyle=orthogonalEdgeStyle;rounded=0;orthogonalLoop=1;jettySize=auto;html=1;exitX=0.5;exitY=0;exitDx=0;exitDy=0;entryX=0.5;entryY=1;entryDx=0;entryDy=0;endArrow=diamondThin;endFill=1;" edge="1" parent="1" source="NYa0R-SMuXHiYhOAjpid-22" target="NYa0R-SMuXHiYhOAjpid-19">
          <mxGeometry relative="1" as="geometry" />
        </mxCell>
        <mxCell id="NYa0R-SMuXHiYhOAjpid-22" value="«interface»&lt;br&gt;&lt;b&gt;ETA&lt;/b&gt;" style="html=1;whiteSpace=wrap;" vertex="1" parent="1">
          <mxGeometry x="1171" y="560" width="110" height="50" as="geometry" />
        </mxCell>
        <mxCell id="NYa0R-SMuXHiYhOAjpid-45" style="edgeStyle=orthogonalEdgeStyle;rounded=0;orthogonalLoop=1;jettySize=auto;html=1;exitX=0.5;exitY=0;exitDx=0;exitDy=0;entryX=0.5;entryY=1;entryDx=0;entryDy=0;endArrow=diamondThin;endFill=1;" edge="1" parent="1" source="NYa0R-SMuXHiYhOAjpid-23" target="NYa0R-SMuXHiYhOAjpid-19">
          <mxGeometry relative="1" as="geometry" />
        </mxCell>
        <mxCell id="NYa0R-SMuXHiYhOAjpid-23" value="«interface»&lt;br&gt;&lt;b&gt;Voice Guided Notification&lt;/b&gt;" style="html=1;whiteSpace=wrap;" vertex="1" parent="1">
          <mxGeometry x="1351" y="560" width="110" height="50" as="geometry" />
        </mxCell>
        <mxCell id="NYa0R-SMuXHiYhOAjpid-34" style="edgeStyle=orthogonalEdgeStyle;rounded=0;orthogonalLoop=1;jettySize=auto;html=1;exitX=0.5;exitY=0;exitDx=0;exitDy=0;entryX=0.5;entryY=1;entryDx=0;entryDy=0;endArrow=diamondThin;endFill=1;" edge="1" parent="1" source="NYa0R-SMuXHiYhOAjpid-24" target="NYa0R-SMuXHiYhOAjpid-2">
          <mxGeometry relative="1" as="geometry" />
        </mxCell>
        <mxCell id="NYa0R-SMuXHiYhOAjpid-24" value="&lt;div&gt;&amp;lt;&amp;lt;subsystem&amp;gt;&amp;gt;&lt;/div&gt;Points of Interest (POI)" style="html=1;whiteSpace=wrap;" vertex="1" parent="1">
          <mxGeometry x="120" y="250" width="110" height="50" as="geometry" />
        </mxCell>
        <mxCell id="NYa0R-SMuXHiYhOAjpid-39" style="edgeStyle=orthogonalEdgeStyle;rounded=0;orthogonalLoop=1;jettySize=auto;html=1;exitX=0.5;exitY=0;exitDx=0;exitDy=0;entryX=0.5;entryY=1;entryDx=0;entryDy=0;endArrow=diamondThin;endFill=1;" edge="1" parent="1" source="NYa0R-SMuXHiYhOAjpid-25" target="NYa0R-SMuXHiYhOAjpid-24">
          <mxGeometry relative="1" as="geometry" />
        </mxCell>
        <mxCell id="NYa0R-SMuXHiYhOAjpid-25" value="«interface»&lt;br&gt;&lt;b&gt;findPOI&lt;/b&gt;" style="html=1;whiteSpace=wrap;" vertex="1" parent="1">
          <mxGeometry x="120" y="390" width="110" height="50" as="geometry" />
        </mxCell>
        <mxCell id="NYa0R-SMuXHiYhOAjpid-35" style="edgeStyle=orthogonalEdgeStyle;rounded=0;orthogonalLoop=1;jettySize=auto;html=1;exitX=0.5;exitY=0;exitDx=0;exitDy=0;entryX=0.5;entryY=1;entryDx=0;entryDy=0;endArrow=diamondThin;endFill=1;" edge="1" parent="1" source="NYa0R-SMuXHiYhOAjpid-26" target="NYa0R-SMuXHiYhOAjpid-2">
          <mxGeometry relative="1" as="geometry" />
        </mxCell>
        <mxCell id="NYa0R-SMuXHiYhOAjpid-26" value="&lt;div&gt;&amp;lt;&amp;lt;subSystem&amp;gt;&amp;gt;&lt;/div&gt;Third-Party Integration" style="html=1;whiteSpace=wrap;" vertex="1" parent="1">
          <mxGeometry x="1811" y="250" width="110" height="50" as="geometry" />
        </mxCell>
        <mxCell id="NYa0R-SMuXHiYhOAjpid-38" style="edgeStyle=orthogonalEdgeStyle;rounded=0;orthogonalLoop=1;jettySize=auto;html=1;exitX=0.5;exitY=0;exitDx=0;exitDy=0;entryX=0.5;entryY=1;entryDx=0;entryDy=0;endArrow=diamondThin;endFill=1;" edge="1" parent="1" source="NYa0R-SMuXHiYhOAjpid-28" target="NYa0R-SMuXHiYhOAjpid-26">
          <mxGeometry relative="1" as="geometry" />
        </mxCell>
        <mxCell id="NYa0R-SMuXHiYhOAjpid-28" value="«interface»&lt;br&gt;Spotify" style="html=1;whiteSpace=wrap;" vertex="1" parent="1">
          <mxGeometry x="1595" y="390" width="110" height="50" as="geometry" />
        </mxCell>
        <mxCell id="NYa0R-SMuXHiYhOAjpid-36" style="edgeStyle=orthogonalEdgeStyle;rounded=0;orthogonalLoop=1;jettySize=auto;html=1;exitX=0.5;exitY=0;exitDx=0;exitDy=0;entryX=0.5;entryY=1;entryDx=0;entryDy=0;endArrow=diamondThin;endFill=1;" edge="1" parent="1" source="NYa0R-SMuXHiYhOAjpid-29" target="NYa0R-SMuXHiYhOAjpid-26">
          <mxGeometry relative="1" as="geometry" />
        </mxCell>
        <mxCell id="NYa0R-SMuXHiYhOAjpid-29" value="«interface»&lt;br&gt;Youtube" style="html=1;whiteSpace=wrap;" vertex="1" parent="1">
          <mxGeometry x="1811" y="390" width="110" height="50" as="geometry" />
        </mxCell>
        <mxCell id="NYa0R-SMuXHiYhOAjpid-37" style="edgeStyle=orthogonalEdgeStyle;rounded=0;orthogonalLoop=1;jettySize=auto;html=1;exitX=0.5;exitY=0;exitDx=0;exitDy=0;entryX=0.5;entryY=1;entryDx=0;entryDy=0;endArrow=diamondThin;endFill=1;" edge="1" parent="1" source="NYa0R-SMuXHiYhOAjpid-30" target="NYa0R-SMuXHiYhOAjpid-26">
          <mxGeometry relative="1" as="geometry" />
        </mxCell>
        <mxCell id="NYa0R-SMuXHiYhOAjpid-30" value="«interface»&lt;br&gt;Amazon Music" style="html=1;whiteSpace=wrap;" vertex="1" parent="1">
          <mxGeometry x="2031" y="390" width="110" height="50" as="geometry" />
        </mxCell>
        <mxCell id="NYa0R-SMuXHiYhOAjpid-63" style="edgeStyle=orthogonalEdgeStyle;rounded=0;orthogonalLoop=1;jettySize=auto;html=1;exitX=0.5;exitY=0;exitDx=0;exitDy=0;entryX=0.5;entryY=1;entryDx=0;entryDy=0;endArrow=diamondThin;endFill=1;" edge="1" parent="1" source="NYa0R-SMuXHiYhOAjpid-62" target="NYa0R-SMuXHiYhOAjpid-18">
          <mxGeometry relative="1" as="geometry" />
        </mxCell>
        <mxCell id="NYa0R-SMuXHiYhOAjpid-62" value="«database»&lt;br&gt;&lt;b&gt;MapData&lt;/b&gt;" style="html=1;whiteSpace=wrap;" vertex="1" parent="1">
          <mxGeometry x="1431" y="390" width="110" height="50" as="geometry" />
        </mxCell>
        <mxCell id="NYa0R-SMuXHiYhOAjpid-69" style="edgeStyle=orthogonalEdgeStyle;rounded=0;orthogonalLoop=1;jettySize=auto;html=1;exitX=0.5;exitY=0;exitDx=0;exitDy=0;entryX=0.5;entryY=1;entryDx=0;entryDy=0;endArrow=diamondThin;endFill=1;" edge="1" parent="1" source="NYa0R-SMuXHiYhOAjpid-65" target="NYa0R-SMuXHiYhOAjpid-13">
          <mxGeometry relative="1" as="geometry" />
        </mxCell>
        <mxCell id="NYa0R-SMuXHiYhOAjpid-65" value="«Domain»&lt;br&gt;&lt;b&gt;User&lt;/b&gt;" style="html=1;whiteSpace=wrap;" vertex="1" parent="1">
          <mxGeometry x="-260" y="530" width="110" height="50" as="geometry" />
        </mxCell>
        <mxCell id="NYa0R-SMuXHiYhOAjpid-70" style="edgeStyle=orthogonalEdgeStyle;rounded=0;orthogonalLoop=1;jettySize=auto;html=1;exitX=0.5;exitY=0;exitDx=0;exitDy=0;entryX=0.5;entryY=1;entryDx=0;entryDy=0;endArrow=diamondThin;endFill=1;" edge="1" parent="1" source="NYa0R-SMuXHiYhOAjpid-67" target="NYa0R-SMuXHiYhOAjpid-13">
          <mxGeometry relative="1" as="geometry" />
        </mxCell>
        <mxCell id="NYa0R-SMuXHiYhOAjpid-67" value="«Domain»&lt;br&gt;&lt;b&gt;Vehicle&lt;/b&gt;" style="html=1;whiteSpace=wrap;" vertex="1" parent="1">
          <mxGeometry x="-90" y="530" width="110" height="50" as="geometry" />
        </mxCell>
        <mxCell id="NYa0R-SMuXHiYhOAjpid-72" style="edgeStyle=orthogonalEdgeStyle;rounded=0;orthogonalLoop=1;jettySize=auto;html=1;exitX=0;exitY=0.5;exitDx=0;exitDy=0;entryX=0.5;entryY=1;entryDx=0;entryDy=0;endArrow=diamondThin;endFill=1;" edge="1" parent="1" source="NYa0R-SMuXHiYhOAjpid-71" target="NYa0R-SMuXHiYhOAjpid-62">
          <mxGeometry relative="1" as="geometry" />
        </mxCell>
        <mxCell id="NYa0R-SMuXHiYhOAjpid-71" value="«domain»&lt;br&gt;&lt;b&gt;Roads&lt;/b&gt;" style="html=1;whiteSpace=wrap;" vertex="1" parent="1">
          <mxGeometry x="1511" y="510" width="110" height="50" as="geometry" />
        </mxCell>
        <mxCell id="NYa0R-SMuXHiYhOAjpid-75" style="edgeStyle=orthogonalEdgeStyle;rounded=0;orthogonalLoop=1;jettySize=auto;html=1;exitX=0;exitY=0.5;exitDx=0;exitDy=0;entryX=0.5;entryY=1;entryDx=0;entryDy=0;endArrow=diamondThin;endFill=1;" edge="1" parent="1" source="NYa0R-SMuXHiYhOAjpid-74" target="NYa0R-SMuXHiYhOAjpid-62">
          <mxGeometry relative="1" as="geometry" />
        </mxCell>
        <mxCell id="NYa0R-SMuXHiYhOAjpid-74" value="«domain»&lt;br&gt;&lt;b&gt;Peage&lt;/b&gt;" style="html=1;whiteSpace=wrap;" vertex="1" parent="1">
          <mxGeometry x="1511" y="600" width="110" height="50" as="geometry" />
        </mxCell>
        <mxCell id="NYa0R-SMuXHiYhOAjpid-94" style="edgeStyle=orthogonalEdgeStyle;rounded=0;orthogonalLoop=1;jettySize=auto;html=1;exitX=1;exitY=0.5;exitDx=0;exitDy=0;entryX=0.75;entryY=1;entryDx=0;entryDy=0;endArrow=diamondThin;endFill=1;" edge="1" parent="1" source="NYa0R-SMuXHiYhOAjpid-76" target="NYa0R-SMuXHiYhOAjpid-17">
          <mxGeometry relative="1" as="geometry" />
        </mxCell>
        <mxCell id="NYa0R-SMuXHiYhOAjpid-76" value="«domain»&lt;br&gt;&lt;b&gt;Traffic jams&lt;/b&gt;" style="html=1;whiteSpace=wrap;" vertex="1" parent="1">
          <mxGeometry x="811" y="480" width="110" height="50" as="geometry" />
        </mxCell>
        <mxCell id="NYa0R-SMuXHiYhOAjpid-95" style="edgeStyle=orthogonalEdgeStyle;rounded=0;orthogonalLoop=1;jettySize=auto;html=1;exitX=1;exitY=0.5;exitDx=0;exitDy=0;entryX=0.75;entryY=1;entryDx=0;entryDy=0;endArrow=diamondThin;endFill=1;" edge="1" parent="1" source="NYa0R-SMuXHiYhOAjpid-77" target="NYa0R-SMuXHiYhOAjpid-17">
          <mxGeometry relative="1" as="geometry" />
        </mxCell>
        <mxCell id="NYa0R-SMuXHiYhOAjpid-77" value="«domain»&lt;br&gt;&lt;b&gt;Accidents&lt;/b&gt;" style="html=1;whiteSpace=wrap;" vertex="1" parent="1">
          <mxGeometry x="811" y="550" width="110" height="50" as="geometry" />
        </mxCell>
        <mxCell id="NYa0R-SMuXHiYhOAjpid-97" style="edgeStyle=orthogonalEdgeStyle;rounded=0;orthogonalLoop=1;jettySize=auto;html=1;exitX=1;exitY=0.5;exitDx=0;exitDy=0;entryX=0.75;entryY=1;entryDx=0;entryDy=0;endArrow=diamondThin;endFill=1;" edge="1" parent="1" source="NYa0R-SMuXHiYhOAjpid-78" target="NYa0R-SMuXHiYhOAjpid-17">
          <mxGeometry relative="1" as="geometry" />
        </mxCell>
        <mxCell id="NYa0R-SMuXHiYhOAjpid-78" value="«domain»&lt;br&gt;&lt;b&gt;Policia&lt;/b&gt;" style="html=1;whiteSpace=wrap;" vertex="1" parent="1">
          <mxGeometry x="811" y="620" width="110" height="50" as="geometry" />
        </mxCell>
        <mxCell id="NYa0R-SMuXHiYhOAjpid-99" style="edgeStyle=orthogonalEdgeStyle;rounded=0;orthogonalLoop=1;jettySize=auto;html=1;exitX=1;exitY=0.5;exitDx=0;exitDy=0;entryX=0.75;entryY=1;entryDx=0;entryDy=0;endArrow=diamondThin;endFill=1;" edge="1" parent="1" source="NYa0R-SMuXHiYhOAjpid-79" target="NYa0R-SMuXHiYhOAjpid-17">
          <mxGeometry relative="1" as="geometry" />
        </mxCell>
        <mxCell id="NYa0R-SMuXHiYhOAjpid-79" value="«domain»&lt;br&gt;&lt;b&gt;Closed roads&lt;/b&gt;" style="html=1;whiteSpace=wrap;" vertex="1" parent="1">
          <mxGeometry x="811" y="760" width="110" height="50" as="geometry" />
        </mxCell>
        <mxCell id="NYa0R-SMuXHiYhOAjpid-98" style="edgeStyle=orthogonalEdgeStyle;rounded=0;orthogonalLoop=1;jettySize=auto;html=1;exitX=1;exitY=0.5;exitDx=0;exitDy=0;entryX=0.75;entryY=1;entryDx=0;entryDy=0;endArrow=diamondThin;endFill=1;" edge="1" parent="1" source="NYa0R-SMuXHiYhOAjpid-80" target="NYa0R-SMuXHiYhOAjpid-17">
          <mxGeometry relative="1" as="geometry" />
        </mxCell>
        <mxCell id="NYa0R-SMuXHiYhOAjpid-80" value="«domain»&lt;br&gt;&lt;b&gt;Storms&lt;/b&gt;" style="html=1;whiteSpace=wrap;" vertex="1" parent="1">
          <mxGeometry x="811" y="690" width="110" height="50" as="geometry" />
        </mxCell>
        <mxCell id="NYa0R-SMuXHiYhOAjpid-102" style="edgeStyle=orthogonalEdgeStyle;rounded=0;orthogonalLoop=1;jettySize=auto;html=1;exitX=1;exitY=0.5;exitDx=0;exitDy=0;entryX=0.75;entryY=1;entryDx=0;entryDy=0;endArrow=diamondThin;endFill=1;" edge="1" parent="1" source="NYa0R-SMuXHiYhOAjpid-100" target="NYa0R-SMuXHiYhOAjpid-15">
          <mxGeometry relative="1" as="geometry" />
        </mxCell>
        <mxCell id="NYa0R-SMuXHiYhOAjpid-100" value="«domain»&lt;br&gt;&lt;b&gt;Report&lt;/b&gt;" style="html=1;whiteSpace=wrap;" vertex="1" parent="1">
          <mxGeometry x="551" y="470" width="110" height="50" as="geometry" />
        </mxCell>
        <mxCell id="NYa0R-SMuXHiYhOAjpid-106" style="edgeStyle=orthogonalEdgeStyle;rounded=0;orthogonalLoop=1;jettySize=auto;html=1;exitX=0.5;exitY=0;exitDx=0;exitDy=0;entryX=0.5;entryY=1;entryDx=0;entryDy=0;endArrow=diamondThin;endFill=1;" edge="1" parent="1" source="NYa0R-SMuXHiYhOAjpid-104" target="NYa0R-SMuXHiYhOAjpid-25">
          <mxGeometry relative="1" as="geometry" />
        </mxCell>
        <mxCell id="NYa0R-SMuXHiYhOAjpid-104" value="«interface»&lt;br&gt;&lt;b&gt;Seacrh POI&lt;/b&gt;" style="html=1;whiteSpace=wrap;" vertex="1" parent="1">
          <mxGeometry x="60" y="530" width="110" height="50" as="geometry" />
        </mxCell>
        <mxCell id="NYa0R-SMuXHiYhOAjpid-107" style="edgeStyle=orthogonalEdgeStyle;rounded=0;orthogonalLoop=1;jettySize=auto;html=1;exitX=0.5;exitY=0;exitDx=0;exitDy=0;entryX=0.5;entryY=1;entryDx=0;entryDy=0;" edge="1" parent="1" source="NYa0R-SMuXHiYhOAjpid-105" target="NYa0R-SMuXHiYhOAjpid-25">
          <mxGeometry relative="1" as="geometry" />
        </mxCell>
        <mxCell id="NYa0R-SMuXHiYhOAjpid-105" value="«interface»&lt;br&gt;&lt;b&gt;Filter POI&lt;/b&gt;" style="html=1;whiteSpace=wrap;" vertex="1" parent="1">
          <mxGeometry x="220" y="530" width="110" height="50" as="geometry" />
        </mxCell>
        <mxCell id="NYa0R-SMuXHiYhOAjpid-111" style="edgeStyle=orthogonalEdgeStyle;rounded=0;orthogonalLoop=1;jettySize=auto;html=1;exitX=0.5;exitY=0;exitDx=0;exitDy=0;entryX=0.5;entryY=1;entryDx=0;entryDy=0;endArrow=diamondThin;endFill=1;" edge="1" parent="1" source="NYa0R-SMuXHiYhOAjpid-109" target="NYa0R-SMuXHiYhOAjpid-10">
          <mxGeometry relative="1" as="geometry" />
        </mxCell>
        <mxCell id="NYa0R-SMuXHiYhOAjpid-109" value="«Domain»&lt;br&gt;&lt;b&gt;User Form&lt;/b&gt;" style="html=1;whiteSpace=wrap;" vertex="1" parent="1">
          <mxGeometry x="-610" y="530" width="110" height="50" as="geometry" />
        </mxCell>
        <mxCell id="NYa0R-SMuXHiYhOAjpid-112" style="edgeStyle=orthogonalEdgeStyle;rounded=0;orthogonalLoop=1;jettySize=auto;html=1;exitX=0.5;exitY=0;exitDx=0;exitDy=0;entryX=0.5;entryY=1;entryDx=0;entryDy=0;endArrow=diamondThin;endFill=1;" edge="1" parent="1" source="NYa0R-SMuXHiYhOAjpid-110" target="NYa0R-SMuXHiYhOAjpid-11">
          <mxGeometry relative="1" as="geometry" />
        </mxCell>
        <mxCell id="NYa0R-SMuXHiYhOAjpid-110" value="«Domain»&lt;br&gt;&lt;b&gt;Vehicle Form&lt;/b&gt;" style="html=1;whiteSpace=wrap;" vertex="1" parent="1">
          <mxGeometry x="-407" y="530" width="110" height="50" as="geometry" />
        </mxCell>
      </root>
    </mxGraphModel>
  </diagram>
</mxfile>
